<?xml version="1.0" standalone="no"?>
<!DOCTYPE svg PUBLIC "-//W3C//DTD SVG 20010904//EN"
 "http://www.w3.org/TR/2001/REC-SVG-20010904/DTD/svg10.dtd">
<svg version="1.0" xmlns="http://www.w3.org/2000/svg"
 width="1800.000000pt" height="1800.000000pt" viewBox="0 0 1800.000000 1800.000000"
 preserveAspectRatio="xMidYMid meet">
<metadata>
Created by potrace 1.13, written by Peter Selinger 2001-2015
</metadata>
<g transform="translate(0.000000,1800.000000) scale(0.100000,-0.100000)"
fill="#000000" stroke="none">
<path d="M330 13874 l0 -4125 -62 -70 c-81 -90 -176 -224 -227 -320 l-41 -76
0 -232 c0 -291 0 -291 109 -95 5 11 17 35 26 54 8 19 37 64 65 100 27 36 49
70 50 77 0 7 25 54 56 105 31 51 65 109 76 128 11 19 29 47 39 62 11 14 19 31
19 38 0 6 16 36 35 66 19 30 35 57 35 60 0 3 13 25 30 49 16 24 30 46 30 50 0
4 14 26 30 50 17 24 30 50 31 57 0 7 17 37 37 67 42 62 87 92 232 157 l95 42
3 3941 2 3941 -335 0 -335 0 0 -4126z m628 195 l-3 -3911 -95 -42 c-145 -65
-190 -95 -232 -157 -20 -30 -37 -60 -37 -67 -1 -7 -15 -33 -31 -57 -17 -24
-30 -46 -30 -50 0 -4 -13 -26 -30 -50 -16 -24 -30 -46 -30 -49 0 -3 -16 -30
-35 -60 -19 -30 -35 -60 -35 -66 0 -7 -8 -24 -19 -38 -10 -15 -28 -43 -39 -62
-11 -19 -45 -77 -76 -128 -31 -51 -56 -98 -56 -105 -1 -7 -23 -41 -50 -77 -28
-36 -57 -81 -65 -100 -9 -19 -21 -44 -27 -55 -7 -11 -19 -33 -27 -50 -15 -29
-16 -24 -19 113 l-3 143 51 97 c59 112 150 243 238 341 l62 70 0 4135 0 4136
295 0 295 0 -2 -3911z"/>
<path d="M1920 14097 l0 -3903 75 -18 c41 -10 75 -20 75 -22 0 -9 -72 -138
-100 -179 -16 -24 -30 -47 -30 -50 0 -4 -9 -19 -20 -34 -10 -15 -34 -57 -53
-92 -46 -87 -76 -139 -98 -171 -11 -14 -19 -29 -19 -33 0 -4 -9 -19 -20 -34
-10 -15 -34 -57 -53 -92 -46 -87 -76 -139 -98 -171 -11 -14 -19 -29 -19 -33 0
-4 -9 -19 -20 -34 -10 -15 -34 -57 -53 -92 -45 -85 -76 -139 -97 -169 -20 -28
-49 -78 -95 -165 -44 -84 -74 -136 -95 -165 -21 -30 -51 -82 -96 -167 -18 -34
-42 -76 -53 -92 -12 -16 -21 -32 -21 -36 0 -4 -8 -19 -19 -33 -23 -34 -55 -89
-97 -170 -18 -34 -42 -75 -53 -91 -12 -16 -21 -32 -21 -36 0 -3 -17 -32 -38
-63 -21 -31 -51 -84 -67 -117 -16 -33 -42 -79 -57 -102 -15 -23 -28 -44 -28
-48 0 -3 -17 -32 -38 -63 -21 -31 -51 -84 -67 -117 -16 -33 -46 -86 -67 -117
-21 -31 -38 -60 -38 -63 0 -4 -13 -25 -28 -48 -16 -23 -32 -50 -35 -60 -4 -11
-16 -21 -27 -24 -20 -5 -20 -17 -20 -3599 l0 -3594 335 0 335 0 0 3364 0 3364
73 -23 c81 -26 214 -55 250 -55 17 0 32 12 51 40 14 22 26 45 26 52 0 8 11 30
25 50 14 20 25 40 25 43 0 3 18 33 40 65 22 32 40 62 40 65 0 4 14 26 30 50
17 24 30 50 30 57 0 7 11 30 25 50 14 20 25 40 25 43 0 3 18 33 40 65 22 32
40 62 40 65 0 4 8 19 19 33 10 15 22 38 26 52 4 14 25 51 46 82 22 31 39 60
39 63 0 4 8 19 19 33 22 31 51 82 97 169 18 34 42 76 53 92 12 16 21 32 21 36
0 4 8 19 19 33 22 31 51 82 97 169 18 34 42 76 53 92 12 16 21 32 21 36 0 3
17 32 38 63 21 31 51 84 67 117 16 33 46 86 67 117 21 31 38 60 38 63 0 4 9
20 21 36 11 16 35 57 53 91 42 81 74 136 97 170 11 14 19 29 19 33 0 4 9 20
21 36 11 16 35 57 53 91 42 81 74 136 97 170 11 14 19 29 19 33 0 3 18 33 40
65 22 32 40 65 40 72 0 7 11 30 25 50 14 20 25 40 25 43 0 4 14 26 30 50 17
24 30 51 30 61 0 21 -87 127 -173 212 -75 74 -107 80 -137 25 -9 -17 -23 -42
-32 -55 -8 -12 -19 -34 -23 -48 -4 -14 -21 -44 -36 -67 -16 -23 -29 -44 -29
-48 0 -3 -18 -33 -40 -65 -22 -32 -40 -62 -40 -65 0 -4 -8 -19 -19 -33 -10
-15 -22 -38 -26 -52 -4 -14 -25 -51 -46 -82 -22 -31 -39 -60 -39 -63 0 -4 -8
-19 -19 -33 -22 -31 -51 -82 -97 -169 -18 -34 -42 -76 -53 -92 -12 -16 -21
-32 -21 -36 0 -4 -8 -19 -19 -33 -22 -31 -51 -82 -97 -169 -18 -34 -42 -76
-53 -92 -12 -16 -21 -32 -21 -36 0 -3 -17 -32 -38 -63 -21 -31 -51 -84 -67
-117 -16 -33 -46 -86 -67 -117 -21 -31 -38 -60 -38 -63 0 -4 -9 -20 -21 -36
-11 -16 -35 -57 -53 -91 -42 -81 -74 -136 -97 -170 -11 -14 -19 -29 -19 -33 0
-4 -9 -20 -21 -36 -11 -16 -35 -57 -53 -91 -42 -81 -74 -136 -97 -170 -11 -14
-19 -29 -19 -33 0 -3 -18 -33 -40 -65 -22 -32 -40 -65 -40 -72 0 -7 -11 -30
-25 -50 -14 -20 -25 -40 -25 -43 0 -3 -18 -33 -40 -65 -22 -32 -40 -62 -40
-65 0 -4 -13 -26 -30 -50 -16 -24 -30 -50 -30 -57 0 -7 -11 -30 -25 -50 -14
-20 -25 -40 -25 -43 0 -3 -17 -32 -38 -63 -21 -31 -44 -69 -51 -84 -15 -29
-12 -30 -115 16 -55 25 -220 120 -259 150 -18 14 -18 17 12 60 17 24 31 47 31
51 0 4 14 26 30 50 17 24 30 50 30 57 0 7 11 30 25 50 14 20 25 40 25 43 0 3
18 33 40 65 22 32 40 62 40 65 0 4 14 26 30 50 17 24 30 50 30 57 0 7 16 37
35 65 19 29 35 55 35 58 0 4 14 26 30 50 17 24 30 46 30 50 0 4 13 25 29 48
15 23 32 53 36 67 4 14 21 44 36 67 16 23 29 44 29 48 0 4 14 26 30 50 17 24
30 46 30 50 0 4 13 25 29 48 15 23 32 53 36 67 4 14 21 44 36 67 16 23 29 44
29 48 0 3 18 33 40 65 22 32 40 62 40 65 0 4 8 19 19 33 10 15 22 38 26 52 4
14 25 51 46 82 22 31 39 60 39 63 0 4 8 19 19 33 22 31 51 82 97 169 18 34 42
76 53 92 12 16 21 32 21 36 0 4 8 19 19 33 22 31 51 82 97 169 18 34 42 76 53
92 12 16 21 32 21 36 0 3 17 32 38 63 21 31 51 84 67 117 16 33 46 86 67 117
21 31 38 60 38 63 0 4 13 25 28 48 15 23 41 69 57 102 16 33 46 86 67 117 21
31 38 62 38 67 0 17 7 14 105 -44 50 -30 101 -55 113 -55 l22 0 0 4035 0 4035
-335 0 -335 0 0 -3903z m630 -111 l0 -3994 -82 49 c-89 53 -143 64 -155 32 -4
-10 -23 -43 -43 -73 -20 -30 -49 -82 -65 -115 -16 -33 -42 -79 -57 -102 -15
-23 -28 -44 -28 -48 0 -3 -17 -32 -38 -63 -21 -31 -51 -84 -67 -117 -16 -33
-46 -86 -67 -117 -21 -31 -38 -60 -38 -63 0 -4 -9 -20 -21 -36 -11 -16 -35
-58 -53 -92 -46 -87 -75 -138 -97 -169 -11 -14 -19 -29 -19 -33 0 -4 -9 -20
-21 -36 -11 -16 -35 -58 -53 -92 -46 -87 -75 -138 -97 -169 -11 -14 -19 -29
-19 -33 0 -3 -17 -32 -39 -63 -21 -31 -42 -68 -46 -82 -4 -14 -16 -37 -26 -52
-11 -14 -19 -29 -19 -33 0 -3 -18 -33 -40 -65 -22 -32 -40 -62 -40 -65 0 -4
-13 -25 -29 -48 -15 -23 -32 -53 -36 -67 -4 -14 -21 -44 -36 -67 -16 -23 -29
-44 -29 -48 0 -4 -13 -26 -30 -50 -16 -24 -30 -46 -30 -50 0 -4 -13 -25 -29
-48 -15 -23 -32 -53 -36 -67 -4 -14 -21 -44 -36 -67 -16 -23 -29 -44 -29 -48
0 -4 -13 -26 -30 -50 -16 -24 -30 -46 -30 -50 0 -3 -16 -29 -35 -58 -19 -28
-35 -58 -35 -65 0 -7 -13 -33 -30 -57 -16 -24 -30 -46 -30 -50 0 -3 -18 -33
-40 -65 -22 -32 -40 -62 -40 -65 0 -3 -11 -23 -25 -43 -14 -20 -25 -43 -25
-50 0 -7 -13 -33 -30 -57 -16 -24 -30 -46 -30 -50 0 -3 -18 -33 -41 -66 -24
-35 -39 -69 -37 -81 5 -37 218 -167 381 -232 l37 -15 0 -3360 0 -3361 -295 0
-295 0 0 3555 c0 2846 3 3555 13 3555 6 0 18 15 26 33 8 17 27 51 43 74 15 23
28 44 28 48 0 3 17 32 38 63 21 31 51 84 67 117 16 33 46 86 67 117 21 31 38
60 38 63 0 4 13 25 28 48 15 23 41 69 57 102 16 33 46 86 67 117 21 31 38 60
38 63 0 4 9 20 21 36 11 16 35 57 53 91 42 81 74 136 97 170 11 14 19 29 19
33 0 4 9 20 21 36 11 16 35 58 53 92 45 85 75 137 96 167 21 29 51 81 95 165
46 87 75 137 95 165 21 30 52 84 97 169 19 35 43 77 53 92 11 15 20 30 20 34
0 4 8 19 19 33 22 32 52 84 98 171 19 35 43 77 53 92 11 15 20 30 20 34 0 4 8
19 19 33 22 32 52 84 98 171 19 35 43 77 53 92 11 15 20 30 20 34 0 3 14 27
32 52 43 64 118 211 118 234 0 18 -50 39 -136 55 l-34 6 0 3874 0 3874 295 0
295 0 0 -3994z m386 -4421 c15 -23 14 -26 -5 -54 -12 -16 -21 -32 -21 -36 0
-3 -11 -23 -25 -43 -14 -20 -25 -43 -25 -50 0 -7 -18 -40 -40 -72 -22 -32 -40
-62 -40 -65 0 -4 -8 -19 -19 -33 -23 -34 -55 -89 -97 -170 -18 -34 -42 -75
-53 -91 -12 -16 -21 -32 -21 -36 0 -4 -8 -19 -19 -33 -23 -34 -55 -89 -97
-170 -18 -34 -42 -75 -53 -91 -12 -16 -21 -32 -21 -36 0 -3 -17 -32 -38 -63
-21 -31 -51 -84 -67 -117 -16 -33 -46 -86 -67 -117 -21 -31 -38 -60 -38 -63 0
-4 -9 -20 -21 -36 -11 -16 -35 -58 -53 -92 -46 -87 -75 -138 -97 -169 -11 -14
-19 -29 -19 -33 0 -4 -9 -20 -21 -36 -11 -16 -35 -58 -53 -92 -46 -87 -75
-138 -97 -169 -11 -14 -19 -29 -19 -33 0 -3 -17 -32 -39 -63 -21 -31 -42 -68
-46 -82 -4 -14 -16 -37 -26 -52 -11 -14 -19 -29 -19 -33 0 -3 -18 -33 -40 -65
-22 -32 -40 -62 -40 -65 0 -3 -11 -23 -25 -43 -14 -20 -25 -43 -25 -50 0 -7
-13 -33 -30 -57 -16 -24 -30 -46 -30 -50 0 -4 -13 -25 -29 -48 -40 -58 -79
-128 -111 -197 -28 -62 -34 -65 -102 -51 -34 7 -97 24 -140 37 -88 28 -87 25
-26 116 21 31 38 60 38 63 0 3 11 23 25 43 14 20 25 43 25 50 0 7 14 33 30 57
17 24 30 46 30 50 0 3 18 33 40 65 22 32 40 62 40 65 0 3 11 23 25 43 14 20
25 43 25 50 0 7 18 40 40 72 22 32 40 62 40 65 0 4 8 19 19 33 23 34 55 89 97
170 18 34 42 75 53 91 12 16 21 32 21 36 0 4 8 19 19 33 23 34 55 89 97 170
18 34 42 75 53 91 12 16 21 32 21 36 0 3 17 32 38 63 21 31 51 84 67 117 16
33 46 86 67 117 21 31 38 60 38 63 0 4 9 20 21 36 11 16 35 58 53 92 46 87 75
138 97 169 11 14 19 29 19 33 0 4 9 20 21 36 11 16 35 58 53 92 46 87 75 138
97 169 11 14 19 29 19 33 0 3 17 32 39 63 21 31 42 68 46 82 4 14 16 37 26 52
11 14 19 29 19 33 0 3 18 33 40 65 22 32 40 62 40 65 0 4 13 25 29 48 15 23
32 53 36 67 4 14 16 37 26 52 11 14 19 30 19 35 0 5 6 15 13 22 10 10 28 -4
95 -74 45 -47 89 -97 98 -110z"/>
<path d="M4329 17058 c-1 -519 -5 -1016 -8 -1105 l-6 -163 -615 355 c-463 267
-623 355 -647 355 l-33 0 0 -455 0 -455 766 0 766 0 269 -155 c147 -85 277
-155 288 -155 l21 0 0 1360 0 1360 -400 0 -400 0 -1 -942z m761 -393 c0 -723
-3 -1315 -7 -1315 -3 0 -115 63 -248 140 l-243 140 -766 0 -766 0 0 411 c0
225 3 408 8 406 359 -214 1248 -717 1265 -717 l24 0 6 233 c4 127 7 634 7
1125 l0 892 360 0 360 0 0 -1315z"/>
<path d="M6810 16318 c0 -926 -3 -1760 -7 -1854 l-6 -170 216 -125 216 -124
-2105 -3 -2104 -2 0 -525 0 -525 3035 0 3035 0 0 23 c-1 19 -109 84 -740 447
l-739 425 -1 2058 0 2057 -400 0 -400 0 0 -1682z m760 -405 l1 -2068 625 -360
c344 -198 663 -381 707 -407 l82 -48 -2962 0 -2963 0 0 485 0 485 2140 0 2140
0 0 23 c0 18 -41 45 -252 166 l-251 144 7 111 c3 61 6 882 6 1824 l0 1712 360
0 360 0 0 -2067z"/>
<path d="M9370 15848 c0 -1184 -3 -2351 -6 -2593 l-7 -440 386 -222 c212 -123
395 -223 407 -223 l20 0 0 2815 0 2815 -400 0 -400 0 0 -2152z m760 -638 c0
-1523 -3 -2770 -6 -2770 -4 0 -169 93 -367 208 l-360 207 7 380 c3 209 6 1362
6 2563 l0 2182 360 0 360 0 0 -2770z"/>
<path d="M11450 14803 l1 -3198 175 -100 176 -100 -1264 -3 -1263 -2 -33 35
c-18 19 -37 35 -42 35 -5 0 -14 8 -19 18 -17 30 -227 232 -242 232 -4 0 -12 6
-16 14 -4 8 -33 33 -63 57 -76 60 -385 266 -412 275 -12 4 -28 13 -36 20 -7 8
-20 14 -28 14 -8 0 -14 5 -14 10 0 6 -7 10 -15 10 -9 0 -41 14 -72 30 -31 17
-62 30 -69 30 -8 0 -14 5 -14 10 0 6 -8 10 -17 10 -10 0 -40 12 -68 25 -27 14
-58 25 -67 25 -10 0 -18 4 -18 9 0 4 -27 14 -60 20 -33 7 -62 16 -65 21 -3 5
-26 12 -50 16 -25 3 -48 10 -50 15 -3 4 -39 13 -80 20 -41 7 -75 16 -75 19 0
4 -53 13 -117 20 -65 7 -124 18 -132 24 -21 17 -703 15 -709 -1 -2 -7 -19 -13
-37 -13 -47 0 -186 -20 -210 -30 -11 -4 -49 -14 -85 -21 -36 -6 -69 -15 -75
-20 -5 -4 -28 -10 -49 -15 -22 -4 -51 -13 -65 -20 -14 -8 -35 -14 -46 -14 -11
0 -38 -9 -60 -20 -22 -11 -46 -19 -53 -20 -6 0 -29 -9 -49 -20 -21 -11 -46
-20 -55 -20 -10 0 -18 -4 -18 -9 0 -5 -10 -12 -22 -16 -32 -9 -190 -88 -206
-102 -7 -7 -20 -13 -27 -13 -7 0 -20 -6 -27 -13 -7 -7 -25 -18 -40 -24 -16 -7
-28 -17 -28 -23 0 -5 -6 -10 -13 -10 -15 0 -190 -117 -195 -131 -2 -5 -9 -9
-16 -9 -10 0 -48 -29 -97 -75 -9 -8 -18 -15 -21 -15 -9 0 -105 -89 -246 -227
l-134 -133 -899 0 -899 0 0 -425 0 -425 655 0 c615 0 656 1 662 18 11 33 33
77 57 117 14 22 32 56 42 75 10 19 27 49 39 65 12 17 28 44 35 60 8 17 18 32
21 35 3 3 28 39 55 80 62 94 163 227 198 259 14 14 26 30 26 38 0 11 386 13
2235 13 l2234 0 15 -27 c8 -16 36 -50 61 -76 25 -26 45 -50 45 -53 0 -6 61
-93 110 -156 11 -14 20 -31 20 -36 0 -5 7 -15 15 -22 9 -7 23 -29 32 -49 9
-20 21 -39 26 -42 8 -6 28 -40 83 -144 14 -27 38 -72 53 -100 l26 -50 1773 -3
1773 -2 -3 25 c-3 21 -75 66 -528 328 l-525 303 -3 3397 -2 3397 -400 0 -400
0 0 -3197z m762 -230 l3 -3407 488 -282 c268 -155 491 -284 494 -288 4 -3
-758 -5 -1693 -4 l-1699 3 -26 50 c-15 28 -39 73 -53 100 -55 104 -75 138 -83
144 -5 3 -17 22 -26 42 -9 20 -23 42 -32 49 -8 7 -15 17 -15 22 0 5 -9 22 -20
36 -49 63 -110 150 -110 156 0 3 -20 27 -45 53 -25 26 -53 60 -61 76 l-15 27
-2274 0 c-1883 0 -2275 -2 -2275 -13 0 -8 -12 -24 -26 -38 -35 -32 -136 -165
-198 -259 -27 -41 -52 -77 -55 -80 -3 -3 -13 -18 -21 -35 -7 -16 -23 -43 -35
-60 -12 -16 -29 -46 -39 -65 -10 -19 -28 -53 -42 -75 -24 -40 -46 -84 -57
-117 -6 -17 -45 -18 -622 -18 l-615 0 0 385 0 385 899 0 899 0 134 133 c141
138 237 227 246 227 3 0 12 7 21 15 49 46 87 75 97 75 7 0 14 4 16 9 5 14 180
131 195 131 7 0 13 5 13 10 0 6 12 16 28 23 15 6 33 17 40 24 7 7 20 13 27 13
7 0 20 6 27 13 16 14 174 93 206 102 12 4 22 11 22 16 0 5 8 9 18 9 9 0 34 9
55 20 20 11 43 20 49 20 7 1 31 9 53 20 22 11 49 20 60 20 11 0 32 6 46 14 14
7 43 16 65 20 21 5 44 11 49 15 6 5 39 14 75 20 36 7 74 17 85 21 24 10 163
30 210 30 18 0 35 6 37 13 6 16 608 18 629 1 8 -6 67 -17 132 -24 64 -7 117
-16 117 -20 0 -3 34 -12 75 -19 41 -7 77 -16 80 -20 2 -5 25 -12 50 -15 24 -4
47 -11 50 -16 3 -5 32 -14 65 -21 33 -6 60 -16 60 -20 0 -5 8 -9 18 -9 9 0 40
-11 67 -25 28 -13 58 -25 68 -25 9 0 17 -4 17 -10 0 -5 6 -10 14 -10 7 0 38
-13 69 -30 31 -16 63 -30 72 -30 8 0 15 -4 15 -10 0 -5 6 -10 14 -10 8 0 21
-6 28 -14 8 -7 24 -16 36 -20 27 -9 336 -215 412 -275 30 -24 59 -49 63 -57 4
-8 12 -14 16 -14 15 0 225 -202 242 -232 5 -10 14 -18 20 -18 5 0 23 -16 40
-35 l31 -35 1339 0 1339 0 0 23 c0 19 -33 41 -210 142 l-209 120 -1 3168 0
3167 360 0 360 0 2 -3407z"/>
<path d="M13968 14360 c-2 -2002 -3 -3767 -3 -3922 l0 -282 375 -218 c233
-134 385 -217 403 -218 l27 0 0 4140 0 4140 -400 0 -400 0 -2 -3640z m762
-481 l0 -4101 -62 35 c-35 20 -198 114 -363 209 l-300 174 0 242 c0 133 1
1885 3 3892 l2 3650 360 0 360 0 0 -4101z"/>
<path d="M16290 13682 c0 -2375 -3 -4427 -7 -4559 l-6 -240 -204 119 -204 118
-2835 0 -2834 0 0 44 c0 25 -5 48 -10 51 -5 3 -10 28 -10 56 l0 49 -3134 0
-3134 0 -7 -100 -7 -100 -439 0 -439 0 0 -282 c0 -265 -2 -285 -20 -308 -11
-14 -20 -29 -20 -33 0 -5 -8 -21 -19 -35 -10 -15 -22 -38 -26 -52 -4 -14 -25
-51 -46 -82 -22 -31 -39 -60 -39 -63 0 -4 -9 -20 -21 -36 -11 -16 -35 -57 -53
-91 -42 -81 -74 -136 -97 -170 -11 -14 -19 -29 -19 -33 0 -4 -9 -20 -21 -36
-11 -16 -35 -57 -53 -91 -42 -81 -74 -136 -97 -170 -11 -14 -19 -29 -19 -33 0
-3 -18 -33 -40 -65 -22 -32 -40 -65 -40 -72 0 -7 -11 -30 -25 -50 -14 -20 -25
-40 -25 -43 0 -3 -18 -33 -40 -65 -22 -32 -40 -62 -40 -65 0 -4 -13 -26 -30
-50 -16 -24 -30 -50 -30 -57 0 -7 -11 -30 -25 -50 -14 -20 -25 -40 -25 -43 0
-3 -18 -33 -40 -65 -22 -32 -40 -62 -40 -65 0 -4 -13 -26 -30 -50 -16 -24 -30
-49 -30 -56 0 -23 -55 -99 -72 -99 -17 0 -18 -166 -18 -3355 l0 -3355 335 0
335 0 0 3485 0 3485 -22 0 c-12 0 -42 -12 -66 -26 l-45 -27 19 29 c10 16 28
47 39 69 10 22 32 59 47 82 15 23 28 44 28 48 0 3 17 32 38 63 21 31 51 84 67
117 16 33 46 86 67 117 21 31 38 60 38 63 0 4 13 25 28 48 15 23 41 69 57 102
16 33 46 86 67 117 21 31 38 60 38 63 0 4 15 27 33 53 31 46 32 49 35 175 l4
127 434 0 434 0 0 -34 c0 -19 5 -38 10 -41 6 -3 10 -17 10 -31 l0 -24 3099 0
3099 0 7 65 7 65 2613 0 2613 0 442 255 c243 141 445 253 449 250 3 -4 7
-1962 9 -4351 l3 -4344 399 0 400 0 0 9000 0 9000 -400 0 -400 0 0 -4318z
m760 -4682 l0 -8980 -360 0 -360 0 0 4118 c0 2265 -3 4234 -7 4375 -6 232 -8
257 -23 257 -9 0 -227 -121 -485 -270 l-467 -270 -2613 0 -2613 0 -7 -65 -7
-65 -3059 0 -3059 0 0 24 c0 14 -4 28 -10 31 -5 3 -10 22 -10 41 l0 34 -474 0
-474 0 -4 -127 c-3 -126 -4 -129 -35 -175 -18 -26 -33 -49 -33 -53 0 -3 -17
-32 -38 -63 -21 -31 -51 -84 -67 -117 -16 -33 -42 -79 -57 -102 -15 -23 -28
-44 -28 -48 0 -3 -17 -32 -38 -63 -21 -31 -51 -84 -67 -117 -16 -33 -46 -86
-67 -117 -21 -31 -38 -60 -38 -63 0 -4 -9 -20 -21 -36 -11 -16 -35 -58 -53
-92 -46 -87 -75 -138 -97 -169 -11 -14 -19 -36 -19 -47 0 -33 34 -26 116 23
l74 44 0 -3444 0 -3444 -295 0 -295 0 0 3325 c0 3160 1 3325 18 3325 17 0 72
76 72 99 0 7 14 32 30 56 17 24 30 46 30 50 0 3 18 33 40 65 22 32 40 62 40
65 0 3 11 23 25 43 14 20 25 43 25 50 0 7 14 33 30 57 17 24 30 46 30 50 0 3
18 33 40 65 22 32 40 62 40 65 0 3 11 23 25 43 14 20 25 43 25 50 0 7 18 40
40 72 22 32 40 62 40 65 0 4 8 19 19 33 23 34 55 89 97 170 18 34 42 75 53 91
12 16 21 32 21 36 0 4 8 19 19 33 23 34 55 89 97 170 18 34 42 75 53 91 12 16
21 32 21 36 0 3 17 32 39 63 21 31 42 68 46 82 4 14 16 37 26 52 11 14 19 30
19 35 0 4 9 19 20 33 18 23 20 43 20 308 l0 282 439 0 439 0 7 100 7 100 3094
0 3094 0 0 -49 c0 -28 5 -53 10 -56 6 -3 10 -26 10 -51 l0 -44 2834 0 2835 0
224 -130 c124 -71 233 -130 244 -130 19 0 20 10 26 257 4 141 7 2202 7 4580
l0 4323 360 0 360 0 0 -8980z"/>
<path d="M1425 10264 c-11 -2 -46 -6 -77 -9 -32 -4 -58 -11 -58 -16 0 -6 -13
-30 -30 -54 -16 -24 -30 -46 -30 -50 0 -3 -18 -33 -40 -65 -22 -32 -40 -62
-40 -65 0 -4 -8 -19 -19 -33 -10 -15 -22 -38 -26 -52 -4 -14 -25 -51 -46 -82
-22 -31 -39 -60 -39 -63 0 -4 -8 -19 -19 -33 -22 -31 -51 -82 -97 -169 -18
-34 -42 -76 -53 -92 -12 -16 -21 -32 -21 -36 0 -4 -8 -19 -19 -33 -22 -31 -51
-82 -97 -169 -18 -34 -42 -76 -53 -92 -12 -16 -21 -32 -21 -36 0 -3 -17 -32
-38 -63 -21 -31 -51 -84 -67 -117 -16 -33 -46 -86 -67 -117 -21 -31 -38 -60
-38 -63 0 -4 -9 -20 -21 -36 -11 -16 -35 -57 -53 -91 -42 -81 -74 -136 -97
-170 -11 -14 -19 -29 -19 -33 0 -4 -9 -20 -21 -36 -11 -16 -35 -57 -53 -91
-42 -81 -74 -136 -97 -170 -11 -14 -19 -29 -19 -33 0 -3 -11 -23 -25 -43 -25
-36 -25 -40 -25 -239 l0 -203 29 0 c23 0 35 10 65 55 20 30 36 57 36 61 0 3
14 25 30 49 17 24 30 50 30 57 0 7 16 37 35 65 19 29 35 55 35 58 0 4 14 26
30 50 17 24 30 46 30 50 0 4 13 25 29 48 15 23 32 53 36 67 4 14 21 44 36 67
16 23 29 44 29 48 0 4 14 26 30 50 17 24 30 46 30 50 0 4 13 25 29 48 15 23
32 53 36 67 4 14 21 44 36 67 16 23 29 44 29 48 0 3 18 33 40 65 22 32 40 62
40 65 0 4 8 19 19 33 10 15 22 38 26 52 4 14 25 51 46 82 22 31 39 60 39 63 0
4 8 19 19 33 22 31 51 82 97 169 18 34 42 76 53 92 12 16 21 32 21 36 0 4 8
19 19 33 22 31 51 82 97 169 18 34 42 76 53 92 12 16 21 32 21 36 0 3 17 32
38 63 21 31 51 84 67 117 16 33 46 86 67 117 21 31 38 60 38 63 0 4 9 20 21
36 32 46 109 201 109 221 0 16 -8 18 -62 17 -35 -1 -72 -3 -83 -5z m50 -99
c-19 -36 -43 -78 -54 -94 -12 -16 -21 -32 -21 -36 0 -3 -17 -32 -38 -63 -21
-31 -51 -84 -67 -117 -16 -33 -46 -86 -67 -117 -21 -31 -38 -60 -38 -63 0 -4
-9 -20 -21 -36 -11 -16 -35 -58 -53 -92 -46 -87 -75 -138 -97 -169 -11 -14
-19 -29 -19 -33 0 -4 -9 -20 -21 -36 -11 -16 -35 -58 -53 -92 -46 -87 -75
-138 -97 -169 -11 -14 -19 -29 -19 -33 0 -3 -17 -32 -39 -63 -21 -31 -42 -68
-46 -82 -4 -14 -16 -37 -26 -52 -11 -14 -19 -29 -19 -33 0 -3 -18 -33 -40 -65
-22 -32 -40 -62 -40 -65 0 -4 -13 -25 -29 -48 -15 -23 -32 -53 -36 -67 -4 -14
-21 -44 -36 -67 -16 -23 -29 -44 -29 -48 0 -4 -13 -26 -30 -50 -16 -24 -30
-46 -30 -50 0 -4 -13 -25 -29 -48 -15 -23 -32 -53 -36 -67 -4 -14 -21 -44 -36
-67 -16 -23 -29 -44 -29 -48 0 -4 -13 -26 -30 -50 -16 -24 -30 -46 -30 -50 0
-3 -16 -29 -35 -58 -19 -28 -35 -58 -35 -65 0 -7 -13 -33 -30 -57 -16 -24 -30
-46 -30 -50 0 -14 -53 -84 -61 -79 -5 3 -9 62 -9 132 l0 127 35 52 c19 29 35
55 35 59 0 3 8 18 19 32 23 34 55 89 97 170 18 34 42 75 53 91 12 16 21 32 21
36 0 4 8 19 19 33 23 34 55 89 97 170 18 34 42 75 53 91 12 16 21 32 21 36 0
3 17 32 38 63 21 31 51 84 67 117 16 33 46 86 67 117 21 31 38 60 38 63 0 4 9
20 21 36 11 16 35 58 53 92 46 87 75 138 97 169 11 14 19 29 19 33 0 4 9 20
21 36 11 16 35 58 53 92 46 87 75 138 97 169 11 14 19 29 19 33 0 3 17 32 39
63 21 31 42 68 46 82 4 14 16 37 26 52 11 14 19 29 19 33 0 3 18 33 40 65 22
32 40 62 40 65 0 4 14 26 30 50 17 24 30 48 30 54 0 5 26 12 58 16 31 3 66 7
77 9 11 2 25 4 31 5 7 0 -3 -28 -21 -64z"/>
<path d="M14347 7653 l-377 -218 0 -3717 0 -3718 400 0 400 0 0 3935 0 3935
-23 0 c-12 0 -192 -98 -400 -217z m383 -3738 l0 -3895 -360 0 -360 0 0 3688 0
3687 358 207 c196 114 358 207 360 207 1 1 2 -1752 2 -3894z"/>
<path d="M2996 7575 c-9 -13 -16 -27 -16 -30 0 -4 -13 -26 -30 -50 -16 -24
-30 -50 -30 -57 0 -7 -11 -30 -25 -50 -14 -20 -25 -40 -25 -43 0 -3 -18 -33
-40 -65 -22 -32 -40 -62 -40 -65 0 -4 -13 -26 -30 -50 -37 -54 -40 -85 -6 -85
28 0 161 134 249 251 l57 76 0 96 c0 96 0 97 -24 97 -14 0 -30 -10 -40 -25z"/>
<path d="M3020 6475 l0 -405 974 0 973 0 60 -57 c80 -77 165 -153 170 -153 3
0 20 -14 38 -31 40 -38 217 -163 265 -187 19 -9 41 -24 50 -32 8 -8 33 -24 55
-35 22 -11 41 -23 43 -27 2 -4 19 -12 38 -18 19 -6 34 -16 34 -21 0 -5 8 -9
18 -9 9 0 35 -11 57 -25 22 -13 48 -25 58 -25 9 0 17 -4 17 -10 0 -5 19 -14
42 -21 23 -6 51 -17 62 -25 11 -8 27 -14 36 -14 8 -1 33 -9 55 -20 22 -11 50
-19 63 -20 12 0 22 -4 22 -9 0 -5 29 -14 65 -21 36 -7 67 -16 70 -20 3 -5 38
-14 78 -21 39 -7 77 -15 82 -19 6 -4 39 -11 75 -15 36 -4 70 -11 75 -15 15
-12 285 -30 455 -30 171 0 442 18 450 30 3 5 38 12 78 15 39 4 72 11 72 14 0
4 33 13 73 19 41 7 78 16 83 21 5 4 37 14 72 21 34 7 62 16 62 20 0 4 20 11
45 14 25 4 45 11 45 17 0 5 8 9 18 9 9 0 40 11 67 25 28 13 56 25 63 25 7 0
46 18 87 40 41 22 81 40 89 40 8 0 16 3 18 8 2 4 23 17 48 30 123 61 481 310
503 348 4 8 12 14 16 14 5 0 39 29 76 65 38 36 72 65 77 65 4 0 13 9 20 20 13
20 23 20 1253 20 l1240 -1 -84 -47 -83 -47 6 -470 c3 -258 6 -1603 6 -2987 l0
-2518 400 0 400 0 0 3189 0 3189 395 228 c337 195 395 232 395 251 l0 23
-1683 0 c-1592 0 -1685 -1 -1698 -17 -8 -10 -21 -31 -29 -48 -8 -16 -25 -44
-37 -61 -13 -17 -23 -35 -23 -41 0 -5 -9 -18 -20 -28 -11 -10 -20 -23 -20 -28
0 -6 -9 -20 -19 -31 -10 -12 -27 -37 -38 -56 -10 -20 -30 -49 -46 -65 -15 -16
-27 -34 -27 -39 0 -5 -21 -32 -47 -61 -27 -28 -67 -77 -91 -108 l-43 -57
-2170 0 -2170 0 -34 38 c-19 20 -35 41 -35 45 0 5 -18 27 -39 50 -21 23 -69
83 -105 132 -36 50 -74 102 -86 117 -11 14 -20 31 -20 36 0 5 -7 15 -15 22 -9
7 -23 29 -32 49 -9 20 -26 50 -37 66 -12 17 -28 42 -35 58 l-14 27 -704 0
-703 0 0 -405z m1381 338 c7 -16 23 -41 35 -58 11 -16 28 -46 37 -66 9 -20 23
-42 32 -49 8 -7 15 -17 15 -22 0 -5 9 -22 20 -36 12 -15 50 -67 86 -117 36
-49 84 -109 105 -132 21 -23 39 -45 39 -50 0 -4 16 -25 35 -45 l34 -38 2210 0
2210 0 43 57 c24 31 64 80 91 108 26 29 47 56 47 62 0 5 13 23 30 39 16 16 30
34 30 40 0 5 8 19 18 30 21 25 39 53 51 79 5 12 16 27 25 34 9 7 16 18 16 24
0 5 10 24 23 41 13 17 31 47 40 67 9 20 23 41 30 48 11 8 429 10 1621 9 l1607
-3 -360 -208 -361 -209 0 -3199 0 -3199 -360 0 -360 0 0 2548 c0 1401 -3 2732
-6 2957 l-6 410 116 65 c94 53 116 69 116 88 l0 22 -1313 0 c-1301 0 -1312 0
-1325 -20 -7 -11 -16 -20 -20 -20 -5 0 -39 -29 -77 -65 -37 -36 -71 -65 -76
-65 -4 0 -12 -6 -16 -14 -22 -38 -380 -287 -503 -348 -25 -13 -46 -26 -48 -30
-2 -5 -10 -8 -18 -8 -8 0 -48 -18 -89 -40 -41 -22 -80 -40 -87 -40 -7 0 -35
-12 -63 -25 -27 -14 -58 -25 -67 -25 -10 0 -18 -4 -18 -9 0 -6 -20 -13 -45
-17 -25 -3 -45 -10 -45 -14 0 -4 -28 -13 -62 -20 -35 -7 -67 -17 -72 -21 -5
-5 -42 -14 -83 -21 -40 -6 -73 -15 -73 -19 0 -3 -33 -10 -72 -14 -40 -3 -75
-10 -78 -15 -7 -10 -271 -30 -410 -30 -137 0 -401 19 -415 30 -5 4 -39 11 -75
15 -36 4 -69 11 -75 15 -5 4 -43 12 -82 19 -40 7 -75 16 -78 21 -3 4 -34 13
-70 20 -36 7 -65 16 -65 21 0 5 -10 9 -22 9 -13 1 -41 9 -63 20 -22 11 -47 19
-55 20 -9 0 -25 6 -36 14 -11 8 -39 19 -62 25 -23 7 -42 16 -42 21 0 6 -8 10
-17 10 -10 0 -36 12 -58 25 -22 14 -48 25 -57 25 -10 0 -18 4 -18 9 0 5 -15
15 -34 21 -19 6 -36 14 -38 18 -2 4 -21 16 -43 27 -22 11 -47 27 -55 35 -9 8
-31 23 -50 32 -48 24 -225 149 -265 187 -18 17 -35 31 -38 31 -5 0 -90 76
-170 153 l-60 57 -973 0 -974 0 0 365 0 365 663 0 664 0 14 -27z"/>
<path d="M9745 4996 l-370 -214 -3 -2391 -2 -2391 400 0 400 0 0 2605 0 2605
-27 0 c-18 0 -165 -80 -398 -214z m385 -2411 l0 -2565 -360 0 -360 0 2 2361 3
2361 350 203 c193 112 353 204 358 204 4 1 7 -1153 7 -2564z"/>
<path d="M3020 4035 l0 -405 2176 -2 2176 -3 -278 -161 -279 -160 -3 -1652 -2
-1652 400 0 400 0 2 1851 3 1851 595 344 c519 300 595 347 598 369 l3 25
-2895 0 -2896 0 0 -405z m5124 36 l-569 -329 -3 -1861 -2 -1861 -360 0 -360 0
2 1622 3 1622 313 180 c266 154 312 184 312 203 l0 23 -2210 0 -2210 0 0 365
0 365 2827 0 2827 0 -570 -329z"/>
<path d="M4920 2210 l-155 -90 -872 0 -873 0 0 -515 0 -515 35 0 c28 0 159 72
650 355 338 195 617 355 620 355 3 0 5 -405 5 -900 l0 -900 400 0 400 0 0
1150 0 1150 -27 0 c-17 0 -92 -37 -183 -90z m170 -1080 l0 -1110 -360 0 -360
0 0 925 c0 905 0 925 -19 925 -11 0 -304 -164 -651 -365 -348 -201 -634 -365
-636 -365 -2 0 -4 211 -4 470 l0 470 873 0 872 0 135 79 c74 44 138 80 143 80
4 1 7 -498 7 -1109z"/>
</g>
</svg>
